<svg xmlns="http://www.w3.org/2000/svg" xmlns:xlink="http://www.w3.org/1999/xlink" width="500" zoomAndPan="magnify" viewBox="0 0 375 374.999991" height="500" preserveAspectRatio="xMidYMid meet" version="1.0"><defs><clipPath id="id1"><path d="M 12.609375 60 L 175 60 L 175 315 L 12.609375 315 Z M 12.609375 60 " clip-rule="nonzero"/></clipPath><clipPath id="id2"><path d="M 177 10.839844 L 194 10.839844 L 194 119 L 177 119 Z M 177 10.839844 " clip-rule="nonzero"/></clipPath><clipPath id="id3"><path d="M 177 256 L 194 256 L 194 364.089844 L 177 364.089844 Z M 177 256 " clip-rule="nonzero"/></clipPath><clipPath id="id4"><path d="M 254 179 L 362.109375 179 L 362.109375 196 L 254 196 Z M 254 179 " clip-rule="nonzero"/></clipPath></defs><g clip-path="url(#id1)"><path fill="#ffffff" d="M 153.117188 194.105469 L 164.761719 194.105469 L 156.523438 202.351562 L 144.398438 202.554688 Z M 156.523438 172.628906 L 164.761719 180.863281 L 153.117188 180.863281 L 144.398438 172.429688 Z M 19.238281 194.105469 L 50.195312 194.105469 L 33.652344 210.113281 C 31.027344 212.644531 30.949219 216.84375 33.492188 219.476562 C 36.035156 222.097656 40.21875 222.179688 42.851562 219.632812 L 69.234375 194.105469 L 134.074219 194.105469 L 125.007812 202.878906 L 119.839844 202.964844 C 116.1875 203.035156 113.273438 206.039062 113.328125 209.695312 C 113.359375 211.628906 114.214844 213.339844 115.546875 214.53125 C 115.445312 216.300781 116.050781 218.097656 117.375 219.476562 C 119.917969 222.097656 124.109375 222.179688 126.734375 219.632812 L 130.453125 216.035156 L 143.0625 215.820312 L 97.210938 261.703125 L 60.527344 262.316406 C 56.863281 262.386719 53.957031 265.402344 54.015625 269.058594 C 54.082031 272.714844 57.039062 275.609375 60.75 275.5625 L 83.75 275.171875 L 61.859375 297.074219 C 59.269531 299.667969 59.269531 303.859375 61.859375 306.4375 C 64.4375 309.03125 68.628906 309.03125 71.21875 306.4375 L 93.109375 284.535156 L 92.714844 307.5625 C 92.660156 311.21875 95.5625 314.234375 99.214844 314.289062 L 99.339844 314.289062 C 102.9375 314.289062 105.886719 311.398438 105.953125 307.785156 L 106.570312 271.066406 L 152.421875 225.183594 L 152.207031 237.800781 L 148.609375 241.523438 C 146.078125 244.152344 146.144531 248.34375 148.765625 250.890625 C 150.144531 252.226562 151.960938 252.820312 153.730469 252.71875 C 154.921875 254.042969 156.625 254.90625 158.539062 254.9375 C 162.195312 255.027344 165.210938 252.089844 165.265625 248.421875 L 165.355469 243.253906 L 174.121094 234.179688 L 174.121094 215.125 L 165.679688 223.851562 L 165.894531 211.71875 L 174.121094 203.472656 L 174.121094 171.5 L 165.894531 163.265625 L 165.679688 151.121094 L 174.121094 159.859375 L 174.121094 140.789062 L 165.355469 131.71875 L 165.265625 126.550781 C 165.210938 122.925781 162.25 120.042969 158.652344 120.042969 L 158.539062 120.042969 C 156.613281 120.0625 154.921875 120.929688 153.730469 122.261719 C 153.609375 122.253906 153.484375 122.230469 153.375 122.230469 C 151.714844 122.230469 150.054688 122.847656 148.765625 124.089844 C 146.144531 126.628906 146.078125 130.820312 148.609375 133.453125 L 152.207031 137.171875 L 152.421875 149.785156 L 106.570312 103.914062 L 105.953125 67.195312 C 105.886719 63.574219 102.9375 60.683594 99.339844 60.683594 L 99.214844 60.683594 C 95.5625 60.75 92.660156 63.765625 92.714844 67.421875 L 93.109375 90.4375 L 71.21875 68.53125 C 69.929688 67.242188 68.226562 66.59375 66.535156 66.59375 C 64.84375 66.59375 63.148438 67.242188 61.859375 68.53125 C 59.269531 71.125 59.269531 75.316406 61.859375 77.898438 L 83.75 99.800781 L 60.75 99.40625 L 60.625 99.40625 C 57.03125 99.40625 54.082031 102.300781 54.015625 105.925781 C 53.957031 109.582031 56.863281 112.597656 60.527344 112.652344 L 97.210938 113.28125 L 143.0625 159.152344 L 130.453125 158.9375 L 126.734375 155.347656 C 125.441406 154.105469 123.796875 153.484375 122.136719 153.484375 C 120.398438 153.484375 118.671875 154.160156 117.375 155.507812 C 116.039062 156.886719 115.445312 158.691406 115.546875 160.472656 C 114.222656 161.660156 113.359375 163.355469 113.328125 165.273438 C 113.273438 168.933594 116.1875 171.949219 119.839844 172 L 125.007812 172.09375 L 134.074219 180.863281 L 69.234375 180.863281 L 42.851562 155.347656 C 41.5625 154.105469 39.90625 153.484375 38.253906 153.484375 C 36.519531 153.484375 34.792969 154.160156 33.492188 155.507812 C 30.949219 158.128906 31.027344 162.324219 33.652344 164.871094 L 50.195312 180.863281 L 19.238281 180.863281 C 15.582031 180.863281 12.613281 183.832031 12.613281 187.492188 C 12.613281 191.148438 15.582031 194.105469 19.238281 194.105469 " fill-opacity="1" fill-rule="nonzero"/></g><g clip-path="url(#id2)"><path fill="#ffffff" d="M 185.585938 118.695312 C 180.949219 118.695312 177.191406 114.933594 177.191406 110.292969 L 177.191406 19.257812 C 177.191406 14.617188 180.949219 10.859375 185.585938 10.859375 C 190.222656 10.859375 193.980469 14.617188 193.980469 19.257812 L 193.980469 110.292969 C 193.980469 114.933594 190.222656 118.695312 185.585938 118.695312 " fill-opacity="1" fill-rule="nonzero"/></g><g clip-path="url(#id3)"><path fill="#ffffff" d="M 185.585938 364.113281 C 180.949219 364.113281 177.191406 360.351562 177.191406 355.714844 L 177.191406 264.679688 C 177.191406 260.039062 180.949219 256.277344 185.585938 256.277344 C 190.222656 256.277344 193.980469 260.039062 193.980469 264.679688 L 193.980469 355.714844 C 193.980469 360.351562 190.222656 364.113281 185.585938 364.113281 " fill-opacity="1" fill-rule="nonzero"/></g><path fill="#ffffff" d="M 269.65625 341.578125 C 266.753906 341.578125 263.933594 340.070312 262.378906 337.378906 L 216.890625 258.539062 C 214.570312 254.523438 215.945312 249.382812 219.960938 247.0625 C 223.976562 244.742188 229.109375 246.117188 231.429688 250.136719 L 276.917969 328.976562 C 279.234375 332.992188 277.859375 338.132812 273.84375 340.449219 C 272.523438 341.214844 271.082031 341.578125 269.65625 341.578125 " fill-opacity="1" fill-rule="nonzero"/><path fill="#ffffff" d="M 331.175781 280 C 329.753906 280 328.308594 279.640625 326.984375 278.875 L 248.199219 233.355469 C 244.179688 231.035156 242.804688 225.898438 245.125 221.882812 C 247.445312 217.863281 252.582031 216.488281 256.597656 218.808594 L 335.382812 264.324219 C 339.398438 266.640625 340.773438 271.78125 338.457031 275.800781 C 336.902344 278.492188 334.078125 280 331.175781 280 " fill-opacity="1" fill-rule="nonzero"/><g clip-path="url(#id4)"><path fill="#ffffff" d="M 353.707031 195.886719 L 262.730469 195.886719 C 258.09375 195.886719 254.335938 192.125 254.335938 187.484375 C 254.335938 182.847656 258.09375 179.085938 262.730469 179.085938 L 353.707031 179.085938 C 358.34375 179.085938 362.101562 182.847656 362.101562 187.484375 C 362.101562 192.125 358.34375 195.886719 353.707031 195.886719 " fill-opacity="1" fill-rule="nonzero"/></g><path fill="#ffffff" d="M 252.40625 157.289062 C 249.5 157.289062 246.683594 155.785156 245.125 153.089844 C 242.804688 149.070312 244.179688 143.929688 248.199219 141.613281 L 326.984375 96.097656 C 331.003906 93.777344 336.136719 95.152344 338.457031 99.171875 C 340.773438 103.1875 339.398438 108.328125 335.382812 110.652344 L 256.597656 156.164062 C 255.273438 156.929688 253.828125 157.289062 252.40625 157.289062 " fill-opacity="1" fill-rule="nonzero"/><path fill="#ffffff" d="M 224.152344 129.035156 C 222.726562 129.035156 221.28125 128.671875 219.960938 127.910156 C 215.945312 125.589844 214.570312 120.449219 216.890625 116.433594 L 262.378906 37.59375 C 264.695312 33.578125 269.828125 32.203125 273.84375 34.519531 C 277.859375 36.839844 279.234375 41.976562 276.917969 45.996094 L 231.429688 124.832031 C 229.875 127.527344 227.050781 129.035156 224.152344 129.035156 " fill-opacity="1" fill-rule="nonzero"/><path fill="#ffffff" d="M 233.148438 187.484375 C 233.148438 213.773438 211.851562 235.070312 185.582031 235.070312 L 185.582031 139.890625 C 211.851562 139.890625 233.148438 161.199219 233.148438 187.484375 " fill-opacity="1" fill-rule="nonzero"/></svg>